# xmcd CD database file
#
# Track frame offsets:
#	150
#	20371
#	32322
#	48787
#	60370
#	76004
#	90215
#	107575
#	125724
#	137366
#	152382
#	166921
#	182497
#	202793
#	214254
#	229557
#	247403
#
# Disc length: 3591 seconds
#
# Revision: 0
# Processed by: cddbd v1.5.1PL2 Copyright (c) Steve Scherf et al.
# Submitted via: CDex 1.51
#
DISCID=be0e0511
DTITLE=Pianovoce - Crowd of Birds
DYEAR=2003
DGENRE=Blues
TTITLE0=Are you ready for my love
TTITLE1=I don't care
TTITLE2=Heavy clouds
TTITLE3=Wonder of life
TTITLE4=Crowd of birds
TTITLE5=Umgehau'n
TTITLE6=Head and stomach
TTITLE7=Toleranz
TTITLE8=Your way to show your love
TTITLE9=All by yourself
TTITLE10=Good to have a friend like you
TTITLE11=Self defense
TTITLE12=Frag nicht mich
TTITLE13=Separate ways
TTITLE14=Irrevocable
TTITLE15=Spring however
TTITLE16=How it used to be
EXTD=YEAR: 2003
EXTT0=
EXTT1=
EXTT2=
EXTT3=
EXTT4=
EXTT5=
EXTT6=
EXTT7=
EXTT8=
EXTT9=
EXTT10=
EXTT11=
EXTT12=
EXTT13=
EXTT14=
EXTT15=
EXTT16=
PLAYORDER=
